<?xml version="1.0" encoding="UTF-8"?>
<svg id="Camada_2" data-name="Camada 2" xmlns="http://www.w3.org/2000/svg" viewBox="0 0 313.44 313.44">
  <g id="Camada_2-2" data-name="Camada 2">
    <path d="M269.04,0v22.2h22.2v22.2h22.2v90.12h-22.2v22.2h-22.2v22.86h-67.26v44.4h-22.2v22.2h22.2v45.06h-22.2v22.2h-67.91v-22.2h-22.2v-45.06h22.2v-22.2h-22.2v-67.26s22.2,0,22.2,0v-22.86h22.2v-22.2h67.26v-21.55h-88.81v22.2h-22.2v22.2H22.2v-22.2H0V44.4h22.2v-22.2h22.2V0h224.64ZM268.39,22.86H45.06v22.2h-22.2v66.61h66.61v-45.06h134.52v45.71h-22.2v22.2h-45.06v22.2h-44.4v66.61h66.61v-44.4h22.2v-22.86l67.26.65v-22.86h22.2V45.06h-22.2v-22.2ZM178.92,246.84h-66.61v43.75h66.61v-43.75Z"/>
  </g>
</svg>